<svg width="24" height="24" viewBox="0 0 24 24" fill="none" xmlns="http://www.w3.org/2000/svg">
    <!-- Fondo del icono (opcional) -->
    <rect width="24" height="24" rx="4" fill="#4F46E5" opacity="0.1"/>

    <!-- Diseño de meta/target -->
    <path d="M12 5C8.13401 5 5 8.13401 5 12C5 15.866 8.13401 19 12 19C15.866 19 19 15.866 19 12C19 8.13401 15.866 5 12 5Z" stroke="#4F46E5" stroke-width="2"/>
    <path d="M12 9C10.3431 9 9 10.3431 9 12C9 13.6569 10.3431 15 12 15C13.6569 15 15 13.6569 15 12C15 10.3431 13.6569 9 12 9Z" stroke="#4F46E5" stroke-width="2"/>
    <path d="M12 12L12 12.01" stroke="#4F46E5" stroke-width="2" stroke-linecap="round"/>
</svg>

